<?xml version="1.0" encoding="UTF-8" standalone="no"?>
<!-- Created with Inkscape (http://www.inkscape.org/) -->

<svg
   xmlns:dc="http://purl.org/dc/elements/1.1/"
   xmlns:cc="http://creativecommons.org/ns#"
   xmlns:rdf="http://www.w3.org/1999/02/22-rdf-syntax-ns#"
   xmlns:svg="http://www.w3.org/2000/svg"
   xmlns="http://www.w3.org/2000/svg"
   xmlns:sodipodi="http://sodipodi.sourceforge.net/DTD/sodipodi-0.dtd"
   xmlns:inkscape="http://www.inkscape.org/namespaces/inkscape"
   width="210mm"
   height="297mm"
   viewBox="0 0 744.09448819 1052.3622047"
   id="svg2"
   version="1.1"
   inkscape:version="0.91 r13725"
   sodipodi:docname="miller_errand.svg">
  <defs
     id="defs4" />
  <sodipodi:namedview
     id="base"
     pagecolor="#ffffff"
     bordercolor="#666666"
     borderopacity="1.0"
     inkscape:pageopacity="0.0"
     inkscape:pageshadow="2"
     inkscape:zoom="1.979899"
     inkscape:cx="280.60204"
     inkscape:cy="895.39287"
     inkscape:document-units="px"
     inkscape:current-layer="layer1"
     showgrid="false"
     inkscape:window-width="1920"
     inkscape:window-height="1056"
     inkscape:window-x="0"
     inkscape:window-y="24"
     inkscape:window-maximized="1" />
  <metadata
     id="metadata7">
    <rdf:RDF>
      <cc:Work
         rdf:about="">
        <dc:format>image/svg+xml</dc:format>
        <dc:type
           rdf:resource="http://purl.org/dc/dcmitype/StillImage" />
        <dc:title></dc:title>
      </cc:Work>
    </rdf:RDF>
  </metadata>
  <g
     inkscape:label="Layer 1"
     inkscape:groupmode="layer"
     id="layer1">
    <path
       style="fill:#383838;fill-opacity:1"
       d="m 103.94219,321.03426 c 0,-0.91259 1.93002,-3.36959 4.28894,-5.45998 l 4.28894,-3.80073 1.42789,-13.125 c 0.78534,-7.21875 1.40024,-13.75781 1.36643,-14.53125 -0.0338,-0.77344 -0.0675,-5.17348 -0.0748,-9.77787 -0.008,-5.29443 -0.41043,-8.61706 -1.09368,-9.03934 -0.80327,-0.49644 -0.70693,-2.31681 0.37558,-7.09713 0.80078,-3.53617 2.17781,-9.72224 3.06006,-13.74681 l 1.60409,-7.3174 -3.05336,-4.25173 c -2.79538,-3.89249 -3.00477,-4.66518 -2.47823,-9.14517 0.88779,-7.5537 4.98978,-24.85422 6.25422,-26.37779 0.62222,-0.74972 2.77377,-1.85523 4.78123,-2.45668 5.89166,-1.76518 6.18766,-2.90857 2.07564,-8.01774 -3.9081,-4.85579 -12.48561,-15.25837 -15.685,-19.02234 -9.05532,-10.65328 -10.38828,-13.10187 -7.95204,-14.60754 0.58352,-0.36064 1.39194,-0.0691 1.79649,0.64779 0.40456,0.71693 5.66796,7.3292 11.69645,14.69395 9.35177,11.42465 11.25572,13.3016 12.96913,12.78525 3.01085,-0.90734 3.25463,-1.33062 4.55623,-7.9112 l 1.202,-6.077 4.77077,-0.27813 c 5.81784,-0.33917 6.91979,0.72589 7.75137,7.49188 0.55744,4.53547 0.8324,4.97077 3.64973,5.77812 4.08945,1.17188 4.06597,3.90091 -0.0484,5.61999 -2.38604,0.99695 -3.36015,2.17748 -4.25143,5.1523 l -1.15619,3.85903 5.39409,7.7509 c 2.96675,4.263 6.56739,8.86939 8.00143,10.23642 2.36775,2.25711 2.62169,3.14012 2.76359,9.60937 0.0859,3.91813 0.1914,7.82782 0.23437,8.68821 0.043,0.86038 -1.1875,2.27009 -2.73437,3.13268 -3.18505,1.7761 -3.14371,1.34686 -1.86775,19.39244 l 0.74212,10.4957 -3.39947,2.00574 c -3.24491,1.91454 -5.29783,5.92065 -5.31343,10.36874 -0.003,0.81998 -1.28625,4.05445 -2.85196,7.1877 -2.9391,5.88168 -7.46576,21.93894 -7.46576,26.48308 0,3.01181 1.47624,4.44365 6.28643,6.0973 6.49498,2.23287 4.81141,3.27228 -5.30023,3.27228 -7.43147,0 -9.59571,-0.29489 -10.00571,-1.36335 -0.28774,-0.74984 -0.0348,-7.18343 0.56198,-14.29688 1.55429,-18.52525 2.22545,-32.15227 1.58357,-32.15227 -0.30458,0 -1.01192,1.79297 -1.57188,3.98438 -0.55996,2.1914 -1.59981,5.25 -2.31078,6.79687 -1.74392,3.79427 -3.80518,11.47263 -5.66264,21.09375 -0.84615,4.38281 -1.72738,8.92843 -1.95829,10.10138 -0.94087,4.77922 -17.24745,11.51847 -17.24745,7.12808 z m 19.47266,-76.11618 c 0.2041,-0.61231 -0.29688,-1.11328 -1.11329,-1.11328 -0.8164,0 -1.48437,0.66797 -1.48437,1.48437 0,1.65556 2.01821,1.36724 2.59766,-0.37109 z m 11.58203,-5.78798 c 2.00799,-0.0104 2.56998,-0.55801 3.05338,-2.97504 0.70216,-3.51079 0.75893,-3.43602 -3.80394,-5.01017 -4.13857,-1.42777 -4.42078,-1.16252 -5.36478,5.04268 -0.59826,3.93248 -0.53581,4.07789 1.51522,3.52842 1.17655,-0.3152 3.2466,-0.57885 4.60012,-0.58589 z m 12.65697,-1.31656 c 0.0649,-0.0564 0.40969,-1.05171 0.7663,-2.21186 0.55579,-1.80813 0.30465,-2.10938 -1.75853,-2.10938 -1.32381,0 -2.40693,-0.40864 -2.40693,-0.90808 0,-0.49944 0.73828,-0.64828 1.64062,-0.33077 1.29247,0.4548 1.40651,0.32386 0.53739,-0.61703 -1.77381,-1.9203 -5.80021,-0.38601 -6.52072,2.48477 -0.78616,3.13231 1.68769,5.21485 5.19742,4.37529 1.3346,-0.31925 2.4796,-0.62657 2.54445,-0.68294 z m 11.46679,-6.09356 c 1.8151,-1.15009 0.44414,-4.79018 -1.80413,-4.79018 -1.2731,0 -1.81182,0.65043 -1.81182,2.1875 0,3.27526 1.19594,4.13607 3.61595,2.60268 z m 1.16369,-10.25221 c 0.6826,-3.33756 0.15306,-6.72547 -1.05121,-6.72547 -0.40722,0 -0.51623,0.94922 -0.24225,2.10938 0.48805,2.06664 0.46908,2.07175 -0.93666,0.2522 -1.37106,-1.77467 -1.4162,-1.73302 -1.01615,0.9375 l 0.41865,2.79467 -1.43231,-2.8125 -1.43231,-2.8125 0.56444,4.21875 c 0.69029,5.15936 1.04577,5.80868 2.97642,5.43687 0.85897,-0.16542 1.79132,-1.63841 2.15138,-3.3989 z m -39.12605,-10.00134 c -0.29566,-0.77047 -0.96027,-1.13961 -1.47692,-0.82031 -0.57759,0.35698 -0.4495,0.89094 0.33261,1.38651 1.70701,1.08162 1.76553,1.05267 1.14431,-0.5662 z m 15.13923,-2.5835 c 0.2318,-0.64454 1.0081,-3.73657 1.72509,-6.8712 l 1.30362,-5.69931 -2.60453,-0.98311 c -2.59775,-0.98054 -2.61181,-0.96396 -5.39472,6.36092 -1.88138,4.95196 -2.44425,7.48612 -1.72811,7.78028 2.19284,0.90074 6.29271,0.54111 6.69865,-0.58758 z m 8.75168,0.55708 c 2.07876,-0.55653 2.16495,-0.87575 1.5548,-5.75917 -0.87142,-6.9746 -1.23614,-7.68208 -3.84886,-7.46584 -1.9848,0.16427 -2.25044,0.64626 -2.25044,4.08334 0,4.60614 0.9301,9.76174 1.75781,9.74366 0.32227,-0.007 1.57628,-0.27794 2.78669,-0.60199 z m -1.96638,-15.96895 c -2.09939,-0.54863 -2.1406,-2.16626 -0.0552,-2.16626 1.38249,0 1.35249,-0.17619 -0.23437,-1.37643 -1.0009,-0.75704 -1.43802,-1.38986 -0.97138,-1.40625 1.00498,-0.0353 -2.21968,-3.77982 -3.25508,-3.77982 -0.39038,0 -1.00371,1.7397 -1.36295,3.86601 -0.74742,4.42392 0.22479,5.53632 4.7071,5.38588 1.56031,-0.0524 2.08206,-0.28528 1.17187,-0.52313 z m 3.03252,-7.55689 c 0.008,-0.64453 -0.40752,-1.17187 -0.92314,-1.17187 -0.51563,0 -0.93104,1.16016 -0.92314,2.57812 0.0112,2.00901 0.21497,2.2677 0.92314,1.17188 0.49983,-0.77344 0.91525,-1.93359 0.92314,-2.57813 z m 63.39553,132.34422 c -0.35125,-0.91533 0.94853,-2.28407 3.90557,-4.11279 2.4376,-1.50748 5.0384,-3.71258 5.77954,-4.90022 1.80794,-2.89711 2.81911,-18.35391 1.72998,-26.44455 -0.58222,-4.32505 -0.52342,-9.08714 0.17723,-14.35218 0.96052,-7.21791 0.89628,-8.13065 -0.76516,-10.87104 -1.66752,-2.7504 -1.70931,-3.36944 -0.51838,-7.67906 2.13845,-7.7385 5.04689,-19.62332 5.0473,-20.625 2.2e-4,-0.51562 -0.84016,0.32813 -1.8675,1.875 -1.02734,1.54688 -1.66321,3.35914 -1.41304,4.02726 0.43841,1.17082 -7.3583,17.57782 -10.05584,21.161 -1.24494,1.65368 -1.48322,1.66534 -4.29695,0.2103 -2.34576,-1.21304 -2.97892,-2.14014 -2.97892,-4.36187 0,-1.55177 0.58312,-3.75578 1.29581,-4.8978 0.71269,-1.14201 2.04753,-5.24045 2.96632,-9.10764 0.91878,-3.86719 2.18921,-7.45313 2.82319,-7.96875 0.98685,-0.80262 8.44469,-16.86309 12.89609,-27.77175 1.06666,-2.61398 2.47991,-3.91024 6.13265,-5.625 5.25242,-2.46571 5.76558,-3.16944 2.86438,-3.92812 -1.40785,-0.36816 -1.80187,-1.00754 -1.4004,-2.27246 0.39692,-1.2506 -0.25726,-2.36339 -2.25969,-3.84386 -4.60112,-3.40175 -3.76194,-4.9349 3.2754,-5.9841 1.38616,-0.20666 2.33604,-1.74381 3.64339,-5.89588 2.02107,-6.41883 2.60575,-6.98849 7.19305,-7.00822 4.87383,-0.021 6.45255,1.58612 7.12327,7.25126 0.58221,4.91768 0.5856,4.92189 3.96775,4.93624 4.60833,0.0195 6.19485,1.11306 4.96067,3.41915 -0.52894,0.98832 -2.01173,2.35891 -3.2951,3.04575 -1.52155,0.81431 -2.54586,2.38135 -2.94407,4.50397 -0.54754,2.91867 -0.21759,3.65219 3.19175,7.09561 4.17661,4.21836 4.1044,4.0529 5.71378,13.09303 0.61961,3.48047 1.42631,6.32813 1.79266,6.32813 0.36635,0 4.6428,-6.08688 9.50322,-13.52639 4.86042,-7.43951 9.37771,-13.5567 10.03842,-13.59375 2.98441,-0.16735 1.66124,3.36621 -5.46254,14.58779 -15.20235,23.94717 -15.43025,24.56796 -13.95419,38.00864 l 1.09903,10.00754 -3.72754,3.58621 c -3.47416,3.34242 -3.76831,4.03961 -4.32717,10.25599 -0.32977,3.66838 -1.2147,8.14192 -1.96649,9.94121 -2.17956,5.21642 -5.20646,21.13826 -5.20263,27.36648 0.004,5.91961 2.2335,11.28203 5.1581,12.40431 1.77731,0.68202 1.83846,3.14947 0.0781,3.14947 -1.49069,0 -11.88455,-3.73663 -12.98564,-4.66839 -0.3931,-0.33264 -0.93402,-6.69568 -1.20203,-14.14008 -0.61027,-16.95086 -0.78522,-18.68452 -2.14008,-21.20802 -0.60468,-1.12626 -1.14836,-3.86845 -1.20817,-6.09375 -0.0598,-2.22531 -0.30923,-3.20226 -0.55424,-2.17101 -0.24503,1.03125 -1.42412,4.19531 -2.62022,7.03125 -1.94113,4.60242 -6.03599,22.25001 -7.51072,32.36894 -0.54797,3.75987 -0.57567,3.78204 -6.83126,5.46669 -3.45458,0.93033 -7.19482,2.05394 -8.31163,2.49693 -1.47242,0.58404 -2.17526,0.42833 -2.55701,-0.56647 z m -0.0973,-64.1327 c -0.82737,-2.60682 0.27,-4.15071 1.95581,-2.75162 1.06372,0.88281 1.32278,0.7306 1.32278,-0.77719 0,-1.03125 -0.59481,-2.36864 -1.32178,-2.97198 -1.04856,-0.87022 -1.62995,-0.65703 -2.8125,1.0313 -1.77701,2.53704 -1.90284,4.67398 -0.36572,6.2111 1.59173,1.59173 1.90216,1.40324 1.22141,-0.74161 z m 40.84177,-1.91721 c 2.19672,-1.17564 5.17639,-7.75091 3.73079,-8.23277 -0.53981,-0.17994 -0.98147,-0.74231 -0.98147,-1.24971 0,-0.5074 0.76247,-0.68055 1.69437,-0.38478 1.18125,0.37492 2.35833,-0.36027 3.88681,-2.42765 2.56702,-3.47208 1.99221,-5.02139 -2.57557,-6.942 -2.89601,-1.21767 -3.11979,-1.17186 -3.83852,0.78571 -1.59832,4.35321 -2.00786,8.29625 -0.7936,7.64046 0.63677,-0.34389 -0.23863,0.73485 -1.94532,2.3972 -1.70669,1.66234 -2.84391,3.28162 -2.52715,3.59838 0.31676,0.31676 0.96841,-0.0446 1.4481,-0.80317 0.70532,-1.11528 0.87491,-1.01548 0.88653,0.52167 0.007,1.04544 -0.64239,2.8384 -1.44506,3.98438 -1.59258,2.27373 -0.57216,2.7351 2.46009,1.11228 z m -33.17255,-10.29014 c 1.13366,-2.31401 2.0861,-4.49098 2.11653,-4.83771 0.0742,-0.84472 -6.49286,-2.97763 -7.14866,-2.32182 -0.84151,0.84151 -1.51613,8.83224 -0.8846,10.47797 1.0033,2.61456 3.77041,1.06261 5.91673,-3.31844 z m 23.24475,-33.03541 c 2.15017,-9.60239 2.17331,-10.11454 0.49772,-11.0113 -1.29024,-0.69051 -2.23469,-0.11383 -4.56735,2.78885 -1.61741,2.01265 -2.94075,3.94262 -2.94075,4.2888 0,0.82531 4.98388,6.82524 5.74219,6.91284 0.32226,0.0372 0.89295,-1.30341 1.26819,-2.97919 z m 8.99139,0.89521 2.40804,-1.12959 -1.80128,-5.90956 c -2.28581,-7.49921 -4.23069,-7.55941 -5.95122,-0.18419 -1.73326,7.42983 -1.63329,8.44454 0.82706,8.39522 1.16016,-0.0233 3.19299,-0.55061 4.5174,-1.17188 z m -3.85447,-14.69471 c 2.558,-1.82146 5.68992,-9.69141 4.37863,-11.0027 -0.83054,-0.83054 -3.33429,2.62005 -3.37112,4.64594 -0.0219,1.20519 -0.8053,1.64063 -2.95165,1.64063 -2.548,0 -2.8529,-0.26364 -2.38298,-2.06059 0.55111,-2.1075 -0.74091,-4.50191 -2.42925,-4.50191 -1.55974,0 -0.21196,9.20326 1.64892,11.2595 2.06475,2.28152 1.93092,2.28102 5.10745,0.0191 z m -3.00668,-2.52452 c 0.64454,-0.26007 1.69922,-0.26007 2.34375,0 0.64454,0.26008 0.11719,0.47286 -1.17187,0.47286 -1.28906,0 -1.81641,-0.21278 -1.17188,-0.47286 z m 2.04348,-6.64474 c -0.0584,-2.28454 -0.15764,-2.3646 -0.8716,-0.70312 -1.10035,2.56067 -1.10035,3.28125 0,3.28125 0.51562,0 0.90785,-1.16016 0.8716,-2.57813 z m 22.5659,125.6769 c 0,-0.51918 0.44922,-2.23261 0.99827,-3.80761 0.8434,-2.41938 0.63848,-3.57365 -1.32087,-7.44025 -1.50727,-2.97444 -2.04322,-5.06967 -1.53095,-5.98503 2.33433,-4.17121 14.76804,-46.29544 21.14793,-71.64713 4.56529,-18.14104 4.79192,-18.66236 9.37154,-21.55711 l 3.97791,-2.51442 -2.23462,-3.2929 c -2.37901,-3.50567 -3.58567,-8.05345 -3.06864,-11.56544 0.24353,-1.65412 1.6014,-2.63543 5.94068,-4.29319 7.91821,-3.02504 11.11825,-2.9097 13.53757,0.48791 1.07057,1.50348 2.21619,4.08208 2.54581,5.73021 0.73313,3.66561 1.56639,2.40809 3.04,-4.58784 0.58277,-2.76665 1.88647,-6.19155 2.89713,-7.61088 1.73433,-2.43566 1.74675,-2.65871 0.22102,-3.97124 -2.03886,-1.75394 -17.75882,-10.87541 -24.58528,-14.26554 -6.19506,-3.07656 -5.80463,-2.71934 -5.06852,-4.63762 0.53952,-1.40598 0.99468,-1.33601 4.47519,0.68794 10.33009,6.00706 27.94203,14.77239 28.96942,14.41786 0.70854,-0.24451 -0.0229,-1.44067 -1.89172,-3.09382 -1.67578,-1.48236 -3.04687,-2.95636 -3.04687,-3.27554 0,-0.31919 1.6875,-1.08593 3.75,-1.70387 2.0625,-0.61794 3.75,-1.25995 3.75,-1.42668 0,-2.58656 2.18878,-10.49109 3.05785,-11.04305 1.82947,-1.16194 7.86318,-0.88747 8.92164,0.40584 0.52749,0.64454 1.32861,3.07032 1.78026,5.39063 0.80546,4.13788 0.8971,4.22428 4.78073,4.50703 3.05762,0.22261 3.95952,0.66701 3.95952,1.95096 0,0.91447 -1.05469,2.22712 -2.34375,2.91701 -1.28906,0.68989 -2.34375,2.03252 -2.34375,2.98364 0,1.67698 -0.35787,2.62454 -2.68756,7.11608 -1.38691,2.6739 -0.31159,4.88493 3.96052,8.14342 3.64544,2.78052 4.57605,2.89258 7.59484,0.91459 2.03033,-1.33032 2.50355,-1.33063 5.0703,-0.003 1.55703,0.80518 4.43683,1.68976 6.39956,1.96575 l 3.56859,0.50179 -2.49496,-2.13911 c -6.8103,-5.83895 -10.13771,-8.19121 -12.38475,-8.75518 -3.21385,-0.80662 -3.11653,-1.79242 0.31737,-3.21479 1.52979,-0.63366 3.26894,-1.73953 3.8648,-2.45749 1.54687,-1.86386 2.30636,-1.61839 2.48761,0.80399 0.31447,4.20306 1.20741,5.8976 4.19911,7.96875 l 3.04692,2.10938 1.21498,-3.51563 c 1.80126,-5.21208 4.05859,-6.99077 9.54043,-7.5175 6.84271,-0.6575 9.58729,1.99021 11.27212,10.87427 0.63277,3.33665 0.5119,5.93055 -0.44549,9.55986 -0.74171,2.81168 -0.98074,5.57607 -0.54888,6.34776 0.82242,1.46958 1.24129,1.09026 3.37987,-3.06084 1.454,-2.82228 6.0213,-3.75522 10.08061,-2.05912 2.968,1.2401 3.60648,2.09997 4.9236,6.63071 0.83236,2.8632 1.92808,5.46212 2.43492,5.77537 1.33277,0.8237 -1.05538,3.41155 -2.60096,2.81845 -1.64914,-0.63283 -1.60948,1.25951 0.0657,3.13534 0.72697,0.81404 2.86885,6.1207 4.75974,11.79257 1.89088,5.67188 4.03827,10.64987 4.77198,11.06221 0.73371,0.41234 1.33662,1.88891 1.33979,3.28125 0.003,1.39235 0.636,3.73992 1.40625,5.21683 2.48147,4.758 1.3676,10.97646 -1.37434,7.67262 -0.61175,-0.73711 -1.69657,-1.11599 -2.41072,-0.84194 -0.85277,0.32724 -1.50715,-0.41592 -1.90647,-2.1651 -0.33441,-1.46486 -1.35592,-4.35087 -2.27003,-6.41337 -0.91411,-2.0625 -1.98909,-4.59375 -2.38883,-5.625 -1.21879,-3.14421 -1.70169,0.83712 -0.54105,4.46071 0.53542,1.67161 1.62807,9.15648 2.42812,16.63304 0.80004,7.47657 2.13789,18.35334 2.97299,24.1706 0.83509,5.81727 1.35094,10.74427 1.14633,10.94887 -0.5448,0.5448 -9.555,1.50567 -18.16177,1.9368 l -7.5,0.3757 -0.84243,7.29964 c -0.46334,4.0148 -0.91987,7.40461 -1.01451,7.53291 -0.21509,0.29155 -8.96526,0.92013 -22.98681,1.6513 -13.27159,0.69206 -31.60615,2.20454 -34.47691,2.84411 -2.06551,0.46016 -2.02835,0.26709 1.17188,-6.0877 3.83392,-7.61315 3.97779,-8.48473 1.40061,-8.48473 -2.81636,0 -3.22764,-2.31918 -1.5081,-8.50404 0.84564,-3.04158 1.53752,-7.26912 1.53752,-9.39454 0,-2.12541 0.6728,-6.66694 1.49511,-10.09228 1.48754,-6.19635 1.48336,-6.24849 -0.82707,-10.29839 l -2.32217,-4.07051 -1.67084,4.53926 c -0.91895,2.49656 -2.60401,5.59391 -3.74456,6.88297 -2.26475,2.55964 -8.86798,20.33154 -8.86798,23.86723 0,1.51775 1.01506,2.79647 3.28125,4.13355 4.39519,2.59322 4.13484,3.87422 -0.78736,3.87422 l -4.0686,0 -1.13102,6.79688 c -2.0468,12.30044 -0.7375,11.01562 -11.22558,11.01562 -5.06444,0 -15.60328,0.27681 -23.41964,0.61512 -9.32163,0.40347 -14.21155,0.29033 -14.21155,-0.32885 z m 85.70352,-72.70814 c 0.49731,-2.76883 0.33545,-3.51563 -0.76196,-3.51563 -2.04577,0 -2.3761,1.03278 -1.7717,5.53902 0.59441,4.43161 1.50487,3.70451 2.53366,-2.02339 z m 68.98398,2.64509 c 0,-1.7268 -2.55892,-4.28572 -4.28572,-4.28572 -1.81484,0 -1.69594,0.48622 0.77009,3.14918 2.46487,2.66172 3.51563,3.00141 3.51563,1.13654 z m -111.04936,-8.86186 c -1.23137,-1.23137 -1.61235,-1.19312 -3.29646,0.33098 -2.42116,2.19113 -2.39279,3.13547 0.17644,5.87029 l 2.08062,2.21472 1.21584,-3.51186 c 1.03459,-2.98832 1.00828,-3.71941 -0.17644,-4.90413 z m 84.86838,-0.2083 c 1.70375,-2.39268 1.83996,-3.05617 0.76697,-3.73563 -0.71761,-0.45442 -1.88374,-0.83268 -2.5914,-0.84058 -1.05614,-0.0118 -1.07052,0.24611 -0.0802,1.43935 1.01902,1.22786 0.89121,1.53614 -0.82272,1.98435 -1.17445,0.30712 -2.02917,1.27436 -2.02917,2.29629 0,2.69404 2.44187,2.10685 4.75652,-1.14378 z m 22.25887,-0.20973 c 0.23469,-1.98243 -0.0964,-2.50583 -1.58529,-2.50583 -2.51243,0 -3.24584,1.40829 -1.97248,3.78759 1.36161,2.5442 3.18251,1.88818 3.55777,-1.28176 z m -62.2054,-3.1986 c 0.58816,-3.20262 2.22952,-9.07611 4.26017,-15.24473 0.42435,-1.28906 1.93206,-6.35156 3.35048,-11.25 1.75669,-6.06665 3.42591,-9.8172 5.2354,-11.76338 3.29231,-3.54101 3.34166,-4.89752 0.22134,-6.08386 -2.50328,-0.95174 -9.18426,0.23205 -10.15266,1.79894 -0.26369,0.42666 0.56225,1.75436 1.83542,2.95044 2.80104,2.63144 2.96841,5.65331 0.43986,7.94161 -1.03125,0.93327 -1.875,2.4158 -1.875,3.29452 0,0.87872 -1.49138,4.82558 -3.31419,8.7708 -3.25162,7.03771 -3.30222,7.33175 -2.68,15.57422 0.65792,8.71529 1.5657,10.07449 2.67918,4.01144 z m -39.51997,0.1788 c 1.10155,-1.5131 1.5946,-3.55714 1.40625,-5.82991 l -0.29002,-3.49987 -1.74744,3.51563 c -1.93739,3.89775 -3.71614,4.6752 -3.21738,1.40625 0.18096,-1.18606 0.88045,-1.98832 1.59802,-1.83282 0.98163,0.21274 1.1405,-0.57198 0.68829,-3.39992 -0.56678,-3.54441 -0.47871,-3.70257 2.45156,-4.40272 2.56496,-0.61287 2.71771,-0.78647 0.97843,-1.11207 -3.37628,-0.63206 -6.0182,1.30908 -5.35858,3.93721 0.34388,1.37014 -0.0207,3.09306 -0.92905,4.38984 -1.50196,2.14435 -2.03677,7.42567 -0.8701,8.59235 1.28179,1.28179 3.64683,0.49317 5.29002,-1.76397 z m 85.95998,-1.00924 c 0,-1.29253 -0.4635,-3.21611 -1.02999,-4.27461 -1.01886,-1.90376 -1.04205,-1.90056 -2.14602,0.29601 -0.88302,1.75696 -0.84835,2.76087 0.16607,4.80854 1.48399,2.99552 3.00994,2.57476 3.00994,-0.82994 z m -5.26307,-4.47785 c 1.58218,-3.3342 1.94747,-6.37704 0.89222,-7.43229 -0.7666,-0.76661 -4.06665,6.41364 -4.06665,8.84823 0,2.76395 1.51071,2.0901 3.17443,-1.41594 z m -4.08717,-4.86863 c 0.98699,-3.52519 0.98465,-4.44396 -0.0129,-5.0605 -1.12044,-0.69247 -6.57432,0.57511 -6.57432,1.528 0,1.1712 3.89979,7.83969 4.58471,7.83969 0.43814,0 1.33929,-1.93824 2.00255,-4.30719 z m 10.48854,-2.48968 c 1.3021,-1.16016 3.12164,-3.29686 4.04343,-4.74823 1.63459,-2.57367 1.62558,-2.68926 -0.36501,-4.67984 l -2.04098,-2.04099 -2.29165,2.80484 c -1.61084,1.97156 -2.30168,3.98854 -2.32538,6.78922 -0.0186,2.1914 0.11161,3.98437 0.28922,3.98437 0.17761,0 1.38828,-0.94922 2.69037,-2.10937 z m -3.91281,-8.29483 c 0.98329,-2.37391 0.90797,-3.03257 -0.5284,-4.61973 -2.42272,-2.67708 -3.25959,-2.29407 -3.25959,1.49181 0,1.83859 -0.44138,4.16762 -0.98085,5.17563 -0.53948,1.00801 -0.70853,2.27338 -0.37568,2.81194 0.82974,1.34254 3.69762,-1.36654 5.14452,-4.85965 z m -45.07073,-1.6997 c 1.5932,-4.0424 1.75194,-5.22951 0.78161,-5.84502 -2.90853,-1.84496 -3.56137,-0.84612 -3.56137,5.44892 0,3.4375 0.17561,6.07422 0.39026,5.85938 0.21464,-0.21485 1.28992,-2.67332 2.3895,-5.46328 z m 38.46033,3.20959 c 0.63645,-0.76687 0.91747,-2.01899 0.62449,-2.78248 -0.29298,-0.76349 -0.1281,-1.63821 0.3664,-1.94383 1.78489,-1.10312 -0.80953,-4.05852 -3.07808,-3.50636 -4.4444,1.08176 -6.32686,4.25333 -4.83385,8.14405 0.72492,1.88909 5.37734,1.94866 6.92104,0.0886 z m -2.95206,-9.53294 c 2.47907,-1.10168 2.47314,-1.1084 -1.04561,-1.18411 -2.97017,-0.0639 -3.68575,0.31029 -4.45312,2.32864 -1.31548,3.45995 -1.15418,3.72791 1.04561,1.73713 1.07795,-0.97553 3.08185,-2.27228 4.45312,-2.88166 z m 14.97736,0.37236 c 0.31824,-2.7571 -1.36216,-3.47334 -3.39039,-1.44511 -1.41053,1.41053 -1.57096,-0.41498 -0.25292,-2.87777 0.4919,-0.91911 0.52304,-2.19428 0.0714,-2.92496 -0.67142,-1.08637 -1.04555,-1.0922 -2.31807,-0.0361 -1.05275,0.8737 -1.21818,1.55861 -0.5402,2.23659 0.53748,0.53748 0.97723,1.74233 0.97723,2.67745 0,2.52825 2.14511,5.50502 3.75,5.20387 0.77344,-0.14513 1.53974,-1.42042 1.70289,-2.83398 z m -45.15482,-6.08364 c 0.72545,-2.88908 -0.0749,-4.56521 -2.48028,-5.19423 -1.49855,-0.39187 -1.8943,-0.18097 -1.51501,0.80741 0.30105,0.78454 -0.0561,1.33785 -0.86345,1.33785 -1.86431,0 -1.76263,3.71949 0.17739,6.48926 1.50486,2.14849 1.59548,2.16256 2.85322,0.44298 0.71444,-0.9768 1.53711,-2.72427 1.82813,-3.88327 z m 48.61268,2.34165 c -1.12323,-5.58081 -1.52708,-6.34013 -4.07215,-7.65623 -3.12627,-1.61666 -7.39355,-0.90487 -8.65,1.44283 -1.06307,1.98637 -0.60297,2.18181 1.93665,0.82265 2.78331,-1.48958 6.2678,0.43515 8.41797,4.64986 2.33522,4.5774 3.19376,4.84607 2.36753,0.74089 z m -10.78575,1.69596 c 0,-0.22738 -0.42188,-0.67416 -0.9375,-0.99283 -0.51563,-0.31867 -0.9375,-0.13263 -0.9375,0.41342 0,0.54606 0.42187,0.99283 0.9375,0.99283 0.51562,0 0.9375,-0.18604 0.9375,-0.41342 z m -83.59303,-5.09084 c 0.19927,-1.40214 -0.0565,-1.97535 -0.70313,-1.57572 -0.55899,0.34548 -1.01634,0.18136 -1.01634,-0.36469 0,-0.54606 0.39094,-0.99283 0.86876,-0.99283 1.638,0 1.6094,-3.28235 -0.0582,-6.68125 -2.47273,-5.03984 -4.19057,-5.21925 -6.50656,-0.67954 -2.25643,4.42299 -1.91143,6.89697 1.47073,10.54638 2.78162,3.00141 5.49872,2.88608 5.94477,-0.25235 z m -4.86679,-6.99698 c -1.58231,-1.60147 -1.60683,-1.8964 -0.26883,-3.2344 1.338,-1.338 1.5249,-1.33506 2.04959,0.0323 0.31753,0.82748 0.43851,2.28296 0.26882,3.2344 -0.29844,1.67346 -0.3653,1.6724 -2.04958,-0.0323 z m 32.582,7.65749 c -0.26556,-0.42969 -0.87982,-0.78125 -1.36501,-0.78125 -0.48519,0 -0.88217,0.35156 -0.88217,0.78125 0,0.42969 0.61426,0.78125 1.36501,0.78125 0.75076,0 1.14773,-0.35156 0.88217,-0.78125 z m 48.37782,-13.24959 c 0,-2.85062 -0.35507,-4.29787 -0.96236,-3.92254 -0.52931,0.32712 -0.84571,1.30124 -0.70313,2.1647 0.16783,1.01638 -0.48452,1.67556 -1.85014,1.86951 -1.84215,0.26163 -2.46362,-0.45777 -2.29435,-2.65583 0.0204,-0.26469 -0.97089,-0.95693 -2.20284,-1.53832 -5.43947,-2.56701 -4.05414,5.5663 1.52612,8.95986 4.38747,2.66818 6.4867,1.08976 6.4867,-4.87738 z m -5.11453,3.16084 c -0.6238,-1.00932 3.08268,-2.41186 3.98615,-1.50837 0.33293,0.33292 -0.0153,0.9978 -0.77377,1.47749 -1.75704,1.11119 -2.54006,1.11871 -3.21238,0.0309 z m -46.21071,-2.88 c -0.4136,-5.86281 -1.11719,-7.44983 -3.57645,-8.06706 -2.99969,-0.75288 -3.09375,-0.63992 -3.80832,4.57344 -0.80767,5.89266 -0.28919,6.77487 3.98165,6.77487 3.57293,0 3.63068,-0.0557 3.40312,-3.28125 z m 7.55566,-1.29717 c -1.88187,-3.28059 -4.29339,-6.20283 -5.11875,-6.20283 -0.97521,0 -0.37526,4.09785 1.21911,8.32685 0.81047,2.14975 0.91017,2.17132 2.67095,0.57783 1.00598,-0.9104 1.55889,-2.12623 1.22869,-2.70185 z m 40.5245,-3.0585 c -0.44462,-2.37001 -0.26906,-3.64819 0.57251,-4.16831 0.92112,-0.56929 0.79381,-0.91131 -0.52801,-1.41854 -1.81383,-0.69603 -4.41246,0.43791 -4.9927,2.17862 -0.18488,0.55461 0.40667,0.94634 1.31453,0.87052 0.98089,-0.0819 1.7826,0.62292 1.97584,1.73713 0.50068,2.8869 1.03628,4.21875 1.69658,4.21875 0.33137,0 0.31394,-1.53818 -0.0387,-3.41817 z m -45.55918,-7.42846 c -0.89549,-1.079 -0.78077,-1.34087 0.5874,-1.34087 1.61682,0 1.6192,-0.0593 0.0487,-1.20769 -0.90839,-0.66423 -1.51637,-1.79395 -1.35106,-2.51048 0.45649,-1.97866 -4.71462,-3.6317 -5.85869,-1.87284 -1.68474,2.59007 -0.59996,7.7941 1.88113,9.0244 3.00134,1.48827 6.40484,-0.0294 4.69261,-2.09252 z m 2.48088,-7.66425 c -1.02412,-1.02412 -1.72638,0.60456 -0.9911,2.29857 0.6972,1.60628 0.74774,1.60482 1.13619,-0.0329 0.2236,-0.9427 0.15831,-1.96223 -0.14509,-2.26563 z m 109.42652,142.91019 c -0.8498,-1.37501 -0.31974,-23.67744 0.68918,-28.99747 0.49235,-2.59615 0.89518,-6.37118 0.89518,-8.38896 l 0,-3.6687 -4.04811,3.38379 c -3.72278,3.11187 -4.32552,4.27455 -7.5,14.46758 -4.77462,15.33097 -4.57725,17.12625 2.02809,18.44732 1.7123,0.34246 2.95752,1.173 2.95752,1.97262 0,1.12626 -0.99471,1.26985 -5.39062,0.77815 -2.96485,-0.33163 -6.9779,-0.65253 -8.9179,-0.71313 -1.93999,-0.0607 -3.97754,-0.65274 -4.52788,-1.31586 -1.1538,-1.39025 3.93164,-28.00356 6.23442,-32.62621 0.74806,-1.50167 1.16265,-2.92777 0.92131,-3.16911 -0.24133,-0.24134 -2.93717,1.72559 -5.99074,4.37094 -3.05357,2.64535 -6.022,4.80973 -6.59652,4.80973 -0.58737,0 -1.04457,-1.58407 -1.04457,-3.61915 0,-1.99053 -0.26531,-5.55479 -0.58957,-7.92057 -0.57008,-4.15912 -0.5003,-4.32139 2.10937,-4.90548 1.48442,-0.33224 3.39907,-0.79212 4.25477,-1.02194 1.80779,-0.48555 3.21294,-6.01601 4.06583,-16.00241 0.3171,-3.71293 0.95029,-8.05393 1.40708,-9.64667 0.5781,-2.0157 0.41717,-4.06746 -0.52946,-6.75052 -2.51954,-7.14112 -2.5246,-12.73153 -0.0231,-25.49371 2.45378,-12.5186 3.47982,-14.61942 8.06837,-16.52006 2.96499,-1.22814 5.01518,-6.59958 2.80069,-7.33774 -0.64391,-0.21464 -2.48106,-1.56101 -4.08253,-2.99193 l -2.91179,-2.60168 3.73079,-1.00546 c 3.60633,-0.97192 3.77769,-1.20109 5.13703,-6.86986 1.34558,-5.61141 1.55539,-5.89907 4.86323,-6.66788 5.50038,-1.27839 8.43677,0.66234 10.03234,6.6306 1.05453,3.94448 1.70194,4.91448 3.28693,4.92476 2.75775,0.0179 6.1925,1.01568 6.1925,1.79891 0,0.36054 -1.6875,1.60395 -3.75,2.76314 -3.48158,1.95676 -3.75,2.40094 -3.75,6.20535 0,2.25376 0.41716,5.19494 0.92701,6.53597 0.97007,2.55146 0.42502,3.1397 -3.43193,3.70398 -2.08492,0.30503 -2.91565,3.35485 -0.91382,3.35485 0.77343,0 1.54265,-0.64469 1.70937,-1.43264 0.41214,-1.94797 9.41583,9.98785 12.44811,16.50196 3.07676,6.60966 3.0898,11.1382 0.0425,14.75971 -2.23601,2.65735 -2.34309,3.33938 -2.3294,14.83756 0.007,6.62869 0.34892,12.57904 0.75782,13.223 0.59222,0.93267 4.06107,0.87953 17.05209,-0.26121 8.96974,-0.78763 16.82254,-1.23485 17.45066,-0.99382 0.62813,0.24103 0.9276,1.25826 0.66551,2.2605 -0.5567,2.12884 -5.50234,3.07228 -18.12793,3.45814 -4.38281,0.13395 -9.1289,0.50303 -10.54687,0.82017 -1.41797,0.31715 -3.62769,0.79432 -4.91048,1.06038 -1.50748,0.31267 -2.94601,1.72178 -4.06752,3.98437 -1.76729,3.56541 -4.28667,18.84359 -5.40789,32.79486 l -0.62139,7.73172 3.37196,1.40891 c 1.85459,0.77489 4.22927,1.40889 5.27708,1.40889 2.57976,0 2.4247,1.73076 -0.20426,2.27984 -4.41883,0.92292 -18.63112,1.10423 -19.16248,0.24447 z m -1.55159,-49.23875 c -0.85336,-0.94295 -1.55155,-2.92202 -1.55155,-4.39794 0,-2.5463 0.068,-2.59054 1.3296,-0.86515 1.99091,2.72273 2.77844,1.01428 1.06225,-2.30446 -1.44444,-2.79323 -1.6,-2.85145 -4.47938,-1.67655 -2.6055,1.06315 -2.97427,1.64819 -2.91419,4.62319 0.10878,5.38675 0.80485,6.33535 4.64884,6.33535 3.28872,0 3.38089,-0.083 1.90443,-1.71444 z m 29.8547,-3.91056 c 0.31867,-0.51562 0.13264,-0.9375 -0.41342,-0.9375 -0.54606,0 -0.99283,0.42188 -0.99283,0.9375 0,0.51563 0.18604,0.9375 0.41342,0.9375 0.22738,0 0.67416,-0.42187 0.99283,-0.9375 z m -33.67332,-7.5 c 1.00003,0 1.32957,-1.39417 1.32957,-5.625 0,-3.09375 -0.35892,-5.625 -0.79761,-5.625 -0.43867,0 -2.23164,0.45903 -3.98437,1.02007 -1.75272,0.56103 -3.72568,1.18504 -4.38435,1.38669 -0.87548,0.26801 -0.54528,1.65388 1.22765,5.15258 1.73046,3.4149 2.83407,4.62907 3.85238,4.23831 0.78493,-0.30121 2.02546,-0.54765 2.75673,-0.54765 z m 23.86102,-27.65625 c 0.51092,-5.19334 0.0548,-6.22822 -2.60958,-5.92165 -2.1654,0.24916 -2.6262,0.79846 -2.87843,3.43122 -0.37256,3.8886 2.30139,7.47912 4.14551,5.56649 0.63692,-0.66058 1.24105,-2.04481 1.3425,-3.07606 z m -8.47204,-1.86686 c 1.22878,-3.23195 0.24836,-5.16439 -2.62015,-5.16439 -2.33145,0 -2.35414,0.0518 -0.60282,1.37643 1.59414,1.20575 1.62295,1.38014 0.23234,1.40625 -0.8731,0.0164 -2.2442,-0.9078 -3.04687,-2.05378 l -1.45941,-2.0836 0,2.71291 c 0,5.43269 5.76559,8.35989 7.49691,3.80618 z m -6.50554,-24.95254 c 1.27298,-2.3786 0.89127,-2.75229 -5.56674,-5.44975 -4.20438,-1.75615 -5.25224,-1.89871 -6.29422,-0.85637 -1.63142,1.63196 -0.80834,2.73354 4.30709,5.76443 5.10389,3.02405 6.1839,3.10149 7.55387,0.54169 z m 1.65272,-14.68036 c 0.21233,-1.48862 -0.33708,-2.3612 -1.875,-2.97787 -1.19644,-0.47975 -1.83403,-0.89901 -1.41688,-0.9317 0.41715,-0.0327 0.49701,-0.48244 0.17747,-0.99946 -0.80878,-1.30863 -4.21718,0.61434 -4.21718,2.37927 0,2.01335 3.61239,5.28673 5.44826,4.93696 0.87065,-0.16588 1.71814,-1.24912 1.88333,-2.4072 z m 2.98091,-2.75024 c 0,-1.88531 -0.271,-2.26025 -1.06198,-1.46927 -0.58409,0.58409 -0.80828,1.72316 -0.49818,2.53125 0.85822,2.23648 1.56016,1.75868 1.56016,-1.06198 z"
       id="path4147"
       inkscape:connector-curvature="0"
       sodipodi:nodetypes="cscscccsscssssssscssscssssscssccsscscsssssssssssccsssscssssccssssssscssssssssscccsssscsscscssscsssscscsssssccccsssccsssssscssssssssssssssssscsssssssssscssscsssssscssssccsssssssssssssscssccssscssssssscsscsscscsssssscccsscsssscssssscsssssssssssssssssssssssssscscsssssscssssssssssssscssssssssscscscsssssssscssssscsssccssssssssssscssssscssssssssssssssssssssscsscsssscsssssssssssccssccssscscssssssssssscscssssccssssscsscssssccsscsssssssssssssssccsssssccssscssssssscsscssscccccsssssssssscssccsscccssssscccsscccsscssssscsscssssscssssssscssssssssssscsscssssssssscsssccsscsssssssssssssscssssssssssssscssssssssscssssssss"
       inkscape:export-xdpi="90"
       inkscape:export-ydpi="90" />
  </g>
</svg>
